<?xml version="1.0" encoding="UTF-8"?>
<svg id="Layer_1" data-name="Layer 1" xmlns="http://www.w3.org/2000/svg" viewBox="0 0 393.73 200">
  <defs>
    <style>
      .cls-1 {
        fill: #fff;
      }
    </style>
  </defs>
  <path class="cls-1" d="m131.65,87.08c-1.28-1.38-3.06-2.08-5.31-2.08-1.12,0-2.27.17-3.44.52v-4.96h9.54v-3.24h-12.71v12.81l.76-.46c.87-.53,1.83-.95,2.83-1.24,1-.29,1.95-.44,2.83-.44,1.36,0,2.38.4,3.11,1.23.75.83,1.13,2.03,1.15,3.55,0,1.57-.39,2.8-1.17,3.65-.77.85-1.83,1.26-3.23,1.26-1.09,0-2.09-.17-2.97-.51-.86-.33-1.54-.79-2.01-1.38l-.29-.36-2.52,1.76.34.42c.8.98,1.87,1.75,3.18,2.28,1.29.52,2.71.79,4.22.79,2.37,0,4.25-.71,5.59-2.11,1.33-1.39,2.01-3.34,2.01-5.79s-.64-4.31-1.91-5.68h0Z"/>
  <polygon class="cls-1" points="139.25 80.56 149.24 80.56 142.2 100.15 145.47 100.15 153.64 77.32 139.25 77.32 139.25 80.56"/>
  <path class="cls-1" d="m160.24,76.85c-.98.98-1.47,2.24-1.47,3.76v3.56h-1.92v2.98h1.92v12.99h3.18v-12.99h3.46v-2.98h-3.46v-3.56c0-.69.19-1.22.58-1.64.39-.41.87-.61,1.48-.61h1.4v-2.98h-1.4c-1.52,0-2.78.5-3.76,1.47Z"/>
  <path class="cls-1" d="m177.83,83.66c-1.21,0-2.31.34-3.28,1.02-.52.36-.99.8-1.4,1.32v-1.83h-3.18v15.98h3.18v-7.67c0-1.24.22-2.32.67-3.22.44-.89,1.02-1.57,1.73-2.03.7-.46,1.47-.69,2.29-.69.46,0,.88.09,1.26.27l.71.34v-3.14l-.35-.11c-.52-.16-1.06-.25-1.62-.25Z"/>
  <path class="cls-1" d="m195.48,95.2c-.47.77-1.09,1.39-1.85,1.82-.76.43-1.75.65-2.94.65-1.44,0-2.54-.48-3.36-1.45-.74-.87-1.19-1.92-1.34-3.11h12.22l.05-.45c.02-.22.03-.55.03-.98,0-1.48-.33-2.85-.99-4.06-.66-1.21-1.58-2.19-2.74-2.89-1.16-.71-2.48-1.06-3.91-1.06-1.52,0-2.89.37-4.08,1.1-1.2.73-2.14,1.75-2.81,3.04-.66,1.28-1,2.75-1,4.36s.34,3.08,1.02,4.36c.68,1.29,1.64,2.32,2.84,3.04,1.21.73,2.59,1.1,4.13,1.1,1.66,0,3.11-.34,4.34-1.01,1.22-.67,2.22-1.6,2.97-2.78l.26-.41-2.57-1.71-.27.45Zm-9.29-4.88c.26-.98.74-1.81,1.41-2.49.79-.79,1.79-1.18,3.05-1.18s2.31.34,3.05,1.03c.64.6,1.08,1.49,1.32,2.64h-8.83Z"/>
  <path class="cls-1" d="m215.48,95.2c-.47.77-1.09,1.39-1.85,1.82-.76.43-1.75.65-2.94.65-1.44,0-2.54-.48-3.36-1.45-.74-.87-1.19-1.92-1.34-3.11h12.22l.05-.45c.02-.22.03-.55.03-.98,0-1.48-.33-2.85-.99-4.06-.66-1.21-1.58-2.19-2.74-2.89-1.16-.71-2.48-1.06-3.91-1.06-1.52,0-2.89.37-4.08,1.1-1.2.73-2.14,1.75-2.81,3.04-.66,1.28-1,2.75-1,4.36s.34,3.08,1.02,4.36c.68,1.29,1.64,2.32,2.84,3.04,1.21.73,2.59,1.1,4.13,1.1,1.66,0,3.11-.34,4.34-1.01,1.22-.67,2.22-1.6,2.97-2.78l.26-.41-2.57-1.71-.27.45Zm-9.29-4.88c.26-.98.74-1.81,1.41-2.49.79-.79,1.79-1.18,3.05-1.18s2.31.34,3.05,1.03c.64.6,1.08,1.49,1.32,2.64h-8.83Z"/>
  <path class="cls-1" d="m235.44,85.56c-.47-.45-.98-.82-1.55-1.13-.98-.52-2.06-.78-3.23-.78-1.52,0-2.89.37-4.08,1.1s-2.14,1.75-2.81,3.03c-.66,1.27-1,2.73-1,4.34s.34,3.11,1.02,4.39c.68,1.29,1.64,2.32,2.84,3.04,1.21.73,2.58,1.1,4.1,1.1,1.14,0,2.21-.26,3.18-.78.56-.3,1.07-.67,1.54-1.11v1.38h3.18v-24.23h-3.18v9.65Zm-4.78,1.08c.92,0,1.75.23,2.47.69.72.46,1.29,1.11,1.69,1.94.41.84.62,1.81.62,2.89s-.21,2.04-.62,2.88c-.4.83-.97,1.48-1.69,1.94-1.41.9-3.46.92-4.88,0-.71-.46-1.27-1.12-1.68-1.95-.41-.84-.62-1.82-.62-2.92s.21-2.03.62-2.87c.4-.82.97-1.47,1.68-1.93.7-.46,1.52-.69,2.42-.69Z"/>
  <path class="cls-1" d="m255.91,84.75c-1.2-.73-2.58-1.1-4.1-1.1s-2.89.37-4.08,1.1-2.14,1.75-2.81,3.03c-.66,1.27-1,2.73-1,4.34s.34,3.08,1.02,4.38c.68,1.3,1.64,2.33,2.84,3.06,1.21.73,2.58,1.1,4.1,1.1s2.89-.37,4.08-1.1c1.19-.73,2.14-1.75,2.81-3.04.66-1.28,1-2.75,1-4.36s-.34-3.08-1.02-4.36c-.68-1.29-1.64-2.32-2.84-3.04Zm-4.1,1.89c.92,0,1.75.23,2.47.69.72.46,1.29,1.11,1.69,1.94.41.84.62,1.81.62,2.89s-.21,2.04-.62,2.88c-.4.83-.97,1.48-1.69,1.94-1.41.9-3.46.92-4.88,0-.71-.46-1.27-1.12-1.68-1.95-.41-.84-.62-1.82-.62-2.92s.21-2.03.62-2.87c.4-.82.97-1.47,1.68-1.93.7-.46,1.52-.69,2.42-.69Z"/>
  <path class="cls-1" d="m285.29,85.27c-1.01-1.07-2.3-1.61-3.82-1.61-1.17,0-2.22.33-3.11.99-.61.45-1.13,1.02-1.56,1.71-.36-.7-.85-1.28-1.47-1.73-.89-.65-1.95-.97-3.14-.97-1.08,0-2.04.27-2.88.82-.4.26-.77.57-1.1.94v-1.25h-3.18v15.98h3.18v-7.99c0-1.74.3-3.12.91-4.13.56-.93,1.38-1.39,2.5-1.39.81,0,1.45.28,1.96.87.51.6.78,1.63.78,3.08v9.56h3.18v-8.91c.1-1.46.45-2.61,1.04-3.44.56-.77,1.32-1.15,2.33-1.15.81,0,1.45.28,1.96.87.51.6.77,1.63.77,3.08v9.56h3.18v-10.52c0-1.83-.51-3.3-1.51-4.36h0Z"/>
</svg>