<?xml version="1.0" encoding="UTF-8"?>
<svg id="Layer_1" data-name="Layer 1" xmlns="http://www.w3.org/2000/svg" viewBox="0 0 393.73 200">
  <defs>
    <style>
      .cls-1 {
        fill: #fff;
      }
    </style>
  </defs>
  <path class="cls-1" d="m23.32,94.04c-1.12,0-2.27.17-3.44.52v-4.96h9.54v-3.24h-12.71v12.81l.76-.46c.87-.53,1.83-.95,2.83-1.24,1-.29,1.95-.44,2.83-.44,1.36,0,2.38.4,3.12,1.23.75.83,1.13,2.03,1.15,3.55,0,1.57-.39,2.8-1.17,3.65-.77.85-1.83,1.26-3.23,1.26-1.09,0-2.09-.17-2.97-.51-.86-.33-1.54-.79-2.01-1.38l-.29-.36-2.52,1.76.34.42c.8.98,1.87,1.75,3.18,2.28,1.29.52,2.71.79,4.22.79,2.37,0,4.25-.71,5.59-2.11,1.33-1.39,2.01-3.34,2.01-5.79s-.64-4.31-1.91-5.68c-1.28-1.38-3.06-2.08-5.31-2.08Z"/>
  <polygon class="cls-1" points="36.23 89.6 46.22 89.6 39.18 109.19 42.45 109.19 50.62 86.36 36.23 86.36 36.23 89.6"/>
  <path class="cls-1" d="m57.22,85.89c-.98.98-1.47,2.24-1.47,3.76v3.56h-1.92v2.98h1.92v12.99h3.18v-12.99h3.46v-2.98h-3.46v-3.56c0-.68.19-1.22.58-1.64.38-.41.87-.61,1.47-.61h1.4v-2.98h-1.4c-1.52,0-2.78.5-3.76,1.47Z"/>
  <path class="cls-1" d="m74.81,92.7c-1.21,0-2.31.34-3.28,1.02-.52.36-.99.8-1.41,1.32v-1.83h-3.18v15.98h3.18v-7.67c0-1.24.23-2.32.67-3.22.44-.88,1.02-1.57,1.73-2.03.7-.46,1.47-.69,2.29-.69.45,0,.88.09,1.26.27l.71.34v-3.14l-.35-.11c-.52-.17-1.06-.25-1.62-.25Z"/>
  <path class="cls-1" d="m92.46,104.24c-.47.78-1.09,1.39-1.85,1.82-.76.43-1.75.65-2.94.65-1.44,0-2.54-.48-3.36-1.45-.74-.87-1.18-1.92-1.34-3.11h12.23l.04-.45c.02-.22.03-.55.03-.98,0-1.48-.33-2.85-.99-4.06-.66-1.22-1.58-2.19-2.74-2.89-1.16-.71-2.48-1.06-3.91-1.06-1.51,0-2.89.37-4.08,1.1-1.19.73-2.14,1.75-2.81,3.04-.66,1.28-1,2.75-1,4.36s.34,3.08,1.02,4.36c.68,1.29,1.64,2.32,2.84,3.04s2.59,1.1,4.13,1.1c1.66,0,3.11-.34,4.34-1,1.22-.67,2.22-1.6,2.97-2.78l.26-.41-2.57-1.71-.27.45Zm-9.29-4.88c.26-.98.74-1.81,1.41-2.49.79-.79,1.79-1.18,3.05-1.18s2.31.34,3.05,1.03c.64.6,1.08,1.49,1.32,2.64h-8.83Z"/>
  <path class="cls-1" d="m112.46,104.24c-.47.78-1.09,1.39-1.85,1.82-.76.43-1.75.65-2.94.65-1.44,0-2.54-.48-3.36-1.45-.74-.87-1.18-1.92-1.34-3.11h12.23l.04-.45c.02-.22.03-.55.03-.98,0-1.48-.33-2.85-.99-4.06-.66-1.22-1.58-2.19-2.74-2.89-1.16-.71-2.48-1.06-3.91-1.06-1.51,0-2.89.37-4.08,1.1-1.19.73-2.14,1.75-2.81,3.04-.66,1.28-1,2.75-1,4.36s.34,3.08,1.02,4.36c.68,1.29,1.64,2.32,2.84,3.04s2.59,1.1,4.13,1.1c1.66,0,3.11-.34,4.34-1,1.22-.67,2.22-1.6,2.97-2.78l.26-.41-2.57-1.71-.27.45Zm-9.29-4.88c.26-.98.74-1.81,1.41-2.49.79-.79,1.79-1.18,3.05-1.18s2.31.34,3.05,1.03c.64.6,1.08,1.49,1.32,2.64h-8.83Z"/>
  <path class="cls-1" d="m132.42,94.6c-.47-.45-.98-.82-1.55-1.13-.98-.52-2.06-.78-3.23-.78-1.51,0-2.89.37-4.08,1.1-1.19.73-2.14,1.75-2.81,3.03-.66,1.27-1,2.73-1,4.34s.34,3.11,1.02,4.39c.68,1.29,1.64,2.32,2.84,3.04s2.58,1.1,4.1,1.1c1.14,0,2.21-.26,3.18-.78.56-.3,1.07-.67,1.54-1.11v1.38h3.18v-24.23h-3.18v9.65Zm-4.78,1.08c.92,0,1.75.23,2.47.69.72.46,1.29,1.11,1.69,1.94.41.84.62,1.81.62,2.88s-.21,2.04-.62,2.88c-.4.83-.97,1.48-1.69,1.94-1.41.9-3.46.92-4.88,0-.71-.46-1.27-1.11-1.68-1.94-.41-.84-.62-1.82-.62-2.92s.21-2.03.62-2.87c.41-.82.97-1.47,1.68-1.93.7-.46,1.52-.69,2.42-.69Z"/>
  <path class="cls-1" d="m152.89,93.79c-1.21-.73-2.58-1.09-4.1-1.09s-2.89.37-4.08,1.1c-1.19.73-2.14,1.75-2.81,3.03-.66,1.27-1,2.73-1,4.34s.34,3.08,1.02,4.38c.68,1.3,1.64,2.33,2.84,3.06h0c1.21.73,2.58,1.1,4.1,1.1s2.89-.37,4.08-1.1c1.19-.73,2.14-1.75,2.81-3.05.66-1.28,1-2.75,1-4.36s-.34-3.08-1.02-4.36c-.68-1.29-1.64-2.32-2.84-3.04Zm-4.1,1.89c.92,0,1.75.23,2.47.69.72.46,1.29,1.11,1.69,1.94.41.84.62,1.81.62,2.88s-.21,2.04-.62,2.88c-.4.83-.97,1.48-1.69,1.94-1.41.9-3.46.92-4.88,0-.71-.46-1.27-1.11-1.68-1.94-.41-.84-.62-1.82-.62-2.92s.21-2.03.62-2.87c.41-.82.97-1.47,1.68-1.93.7-.46,1.52-.69,2.42-.69Z"/>
  <path class="cls-1" d="m178.45,92.7c-1.17,0-2.22.33-3.11.99-.61.45-1.13,1.02-1.56,1.71-.36-.7-.85-1.28-1.47-1.73-.89-.65-1.95-.97-3.14-.97-1.07,0-2.04.27-2.88.82-.4.26-.77.57-1.1.94v-1.25h-3.18v15.98h3.18v-7.99c0-1.73.3-3.12.91-4.13.56-.93,1.38-1.39,2.5-1.39.81,0,1.45.28,1.96.87.51.6.78,1.64.78,3.08v9.56h3.18v-8.91c.1-1.46.45-2.61,1.04-3.44.56-.77,1.32-1.15,2.33-1.15.81,0,1.45.28,1.96.87.51.6.77,1.63.77,3.08v9.56h3.18v-10.52c0-1.83-.51-3.3-1.51-4.36-1.01-1.07-2.3-1.61-3.82-1.61Z"/>
  <path class="cls-1" d="m206.49,87.62c-1.62-1.11-3.57-1.67-5.77-1.67s-4.16.59-5.97,1.74c-1.8,1.15-3.23,2.78-4.27,4.83-1.03,2.04-1.56,4.37-1.56,6.91,0,2.75.52,5.25,1.55,7.41,1.04,2.19,2.51,3.92,4.37,5.15,1.87,1.23,4.02,1.86,6.39,1.86.73,0,1.6-.09,2.57-.28.96-.18,1.86-.42,2.68-.71l.52-.18-1.28-2.76-.42.14c-.69.23-1.42.42-2.18.58-.75.15-1.39.23-1.88.23-1.74,0-3.32-.49-4.69-1.44-1.38-.97-2.48-2.34-3.25-4.07-.79-1.75-1.19-3.77-1.19-6.02,0-2,.4-3.82,1.18-5.39.78-1.57,1.84-2.81,3.16-3.7,1.31-.88,2.75-1.32,4.28-1.32s2.94.42,4.08,1.23c1.14.83,2.03,1.99,2.65,3.47.62,1.5.94,3.26.94,5.23,0,1.63-.21,2.99-.63,4.02-.36.89-.79,1.34-1.27,1.34-.26,0-.44-.07-.58-.24-.15-.18-.23-.51-.23-.96v-10.16h-2.98v.47c-.69-.67-1.57-1.01-2.6-1.01-1.09,0-2.08.34-2.93,1-.83.65-1.5,1.55-1.96,2.68-.46,1.11-.69,2.39-.69,3.79s.23,2.75.69,3.88c.47,1.16,1.14,2.08,2,2.74.88.67,1.87,1.02,2.96,1.02.82,0,1.57-.28,2.24-.82.38-.31.71-.7.99-1.18.22.45.5.83.84,1.13.62.55,1.38.83,2.27.83,1.01,0,1.91-.39,2.7-1.15.75-.73,1.34-1.75,1.74-3.02.4-1.25.6-2.67.6-4.23,0-2.51-.43-4.77-1.29-6.73-.87-1.98-2.13-3.54-3.74-4.64Zm-6.41,7.68c.74,0,1.33.39,1.81,1.18.53.87.79,2.01.79,3.41,0,1.46-.24,2.63-.72,3.46-.44.77-1.04,1.12-1.89,1.12-.74,0-1.34-.39-1.83-1.19-.53-.86-.81-2.01-.81-3.4s.27-2.54.81-3.4c.49-.8,1.09-1.19,1.83-1.19Z"/>
  <path class="cls-1" d="m228.54,94.6c-.47-.45-.98-.82-1.55-1.13-.98-.52-2.06-.78-3.23-.78-1.51,0-2.89.37-4.08,1.1-1.19.73-2.14,1.75-2.81,3.03-.66,1.27-1,2.73-1,4.34s.34,3.11,1.02,4.39c.68,1.29,1.64,2.32,2.84,3.04s2.58,1.1,4.1,1.1c1.14,0,2.21-.26,3.18-.78.56-.3,1.07-.67,1.54-1.11v.3c0,1.34-.36,2.4-1.11,3.25-.73.83-1.65,1.24-2.81,1.24h-6.71v2.98h6.71c1.36,0,2.6-.33,3.68-.97,1.08-.64,1.93-1.54,2.52-2.68.59-1.12.89-2.41.89-3.83v-14.9h-3.18v1.39Zm-4.78,1.08c.92,0,1.75.23,2.47.69.72.46,1.29,1.11,1.69,1.94.41.84.62,1.81.62,2.88s-.21,2.04-.62,2.88c-.4.83-.97,1.48-1.69,1.94-1.41.9-3.46.92-4.88,0-.71-.46-1.27-1.11-1.68-1.94-.41-.84-.62-1.82-.62-2.92s.21-2.03.62-2.87c.41-.82.97-1.47,1.68-1.93.7-.46,1.52-.69,2.42-.69Z"/>
  <path class="cls-1" d="m254.39,92.7c-1.17,0-2.22.33-3.11.99-.61.45-1.13,1.02-1.56,1.71-.36-.7-.85-1.28-1.47-1.73-.89-.65-1.95-.97-3.14-.97-1.07,0-2.04.27-2.88.82-.4.26-.77.57-1.1.94v-1.25h-3.18v15.98h3.18v-7.99c0-1.73.3-3.12.91-4.13.56-.93,1.38-1.39,2.5-1.39.81,0,1.45.28,1.96.87.51.6.78,1.64.78,3.08v9.56h3.18v-8.91c.1-1.46.45-2.61,1.04-3.44.56-.77,1.32-1.15,2.33-1.15.81,0,1.45.28,1.96.87.51.6.77,1.63.77,3.08v9.56h3.18v-10.52c0-1.83-.51-3.3-1.51-4.36-1.01-1.07-2.3-1.61-3.82-1.61Z"/>
  <path class="cls-1" d="m277.54,94.6c-.47-.45-.98-.82-1.55-1.13-.98-.52-2.06-.78-3.23-.78-1.51,0-2.89.37-4.08,1.1-1.19.73-2.14,1.75-2.81,3.03-.66,1.27-1,2.73-1,4.34s.34,3.11,1.02,4.39c.68,1.29,1.64,2.32,2.84,3.04s2.58,1.1,4.1,1.1c1.14,0,2.21-.26,3.18-.78.56-.3,1.07-.67,1.54-1.11v1.38h3.18v-15.98h-3.18v1.39Zm-4.78,1.08c.92,0,1.75.23,2.47.69.72.46,1.29,1.11,1.69,1.94.41.84.62,1.81.62,2.88s-.21,2.04-.62,2.88c-.4.83-.97,1.48-1.69,1.94-1.41.9-3.46.92-4.88,0-.71-.46-1.27-1.11-1.68-1.94-.41-.84-.62-1.82-.62-2.92s.21-2.03.62-2.87c.41-.82.97-1.47,1.68-1.93.7-.46,1.52-.69,2.42-.69Z"/>
  <rect class="cls-1" x="288.13" y="93.21" width="3.18" height="15.98"/>
  <path class="cls-1" d="m288.13,87.49c-.43.43-.64.95-.64,1.55s.21,1.16.64,1.6c.43.44.96.66,1.59.66s1.13-.22,1.57-.66c.44-.44.66-.96.66-1.57s-.22-1.16-.66-1.59c-.89-.86-2.32-.83-3.15,0Z"/>
  <rect class="cls-1" x="298.88" y="84.96" width="3.18" height="24.23"/>
  <path class="cls-1" d="m308.57,105.62c-.42.44-.64.96-.64,1.56s.21,1.16.64,1.6c.43.44.95.66,1.56.66s1.16-.22,1.6-.66c.44-.44.66-.97.66-1.57s-.22-1.16-.66-1.6c-.86-.86-2.29-.89-3.16,0Z"/>
  <path class="cls-1" d="m328.97,104.83c-.49.62-1.04,1.1-1.63,1.42-.59.31-1.36.47-2.29.47s-1.71-.23-2.43-.69c-.72-.46-1.29-1.11-1.69-1.94-.41-.84-.62-1.81-.62-2.88s.21-2.04.62-2.88c.4-.83.97-1.48,1.69-1.94.72-.46,1.52-.69,2.43-.69,1.5,0,2.7.67,3.65,2.06l.3.44,2.41-1.88-.31-.39c-.78-1.01-1.67-1.8-2.62-2.35-.98-.56-2.14-.85-3.43-.85-1.51,0-2.89.37-4.1,1.1-1.21.73-2.16,1.75-2.83,3.05-.66,1.28-1,2.75-1,4.36s.34,3.08,1.02,4.36c.68,1.29,1.64,2.32,2.84,3.04h0c1.21.73,2.59,1.1,4.13,1.1,1.27,0,2.47-.28,3.57-.84,1.09-.55,2.03-1.3,2.77-2.23l.34-.42-2.52-1.76-.29.37Z"/>
  <path class="cls-1" d="m347.63,93.79c-1.21-.73-2.58-1.09-4.1-1.09s-2.89.37-4.08,1.1c-1.19.73-2.14,1.75-2.81,3.03-.66,1.27-1,2.73-1,4.34s.34,3.08,1.02,4.38c.68,1.3,1.64,2.33,2.84,3.06h0c1.21.73,2.58,1.1,4.1,1.1s2.89-.37,4.08-1.1c1.19-.73,2.14-1.75,2.81-3.05.66-1.28,1-2.75,1-4.36s-.34-3.08-1.02-4.36c-.68-1.29-1.63-2.32-2.84-3.04Zm-4.1,1.89c.92,0,1.75.23,2.47.69.72.46,1.29,1.11,1.69,1.94.41.84.62,1.81.62,2.88s-.21,2.04-.62,2.88c-.41.83-.97,1.48-1.69,1.94-1.41.9-3.46.92-4.88,0-.71-.46-1.27-1.11-1.68-1.94-.41-.84-.62-1.82-.62-2.92s.21-2.04.62-2.87c.41-.82.97-1.47,1.68-1.93.7-.46,1.52-.69,2.42-.69Z"/>
  <path class="cls-1" d="m377.02,94.31h0c-1.01-1.07-2.3-1.61-3.82-1.61-1.17,0-2.22.33-3.11.99-.61.45-1.13,1.02-1.56,1.71-.36-.7-.85-1.28-1.47-1.73-.89-.65-1.95-.97-3.14-.97-1.07,0-2.04.27-2.88.82-.4.26-.77.57-1.1.94v-1.25h-3.18v15.98h3.18v-7.99c0-1.74.3-3.12.91-4.13.56-.93,1.38-1.39,2.5-1.39.81,0,1.45.28,1.96.87.51.6.78,1.64.78,3.08v9.56h3.18v-8.91c.1-1.46.45-2.61,1.04-3.44.56-.77,1.32-1.15,2.33-1.15.81,0,1.45.28,1.96.87.51.6.78,1.63.78,3.08v9.56h3.18v-10.52c0-1.83-.51-3.3-1.51-4.36Z"/>
</svg>