<?xml version="1.0" encoding="UTF-8"?>
<svg id="Layer_1" data-name="Layer 1" xmlns="http://www.w3.org/2000/svg" viewBox="0 0 300 200">
  <defs>
    <style>
      .cls-1 {
        fill: #fff;
      }
    </style>
  </defs>
  <path class="cls-1" d="m149.73,152.96l-30.91-30.91c-1.76-1.76-1.76-4.61,0-6.36,1.76-1.76,4.61-1.76,6.36,0l24.55,24.55,24.55-24.55c1.76-1.76,4.61-1.76,6.36,0,1.76,1.76,1.76,4.61,0,6.36l-30.91,30.92Z"/>
  <path class="cls-1" d="m149.73,115.49l-29.85-29.85c-1.17-1.17-1.17-3.07,0-4.24,1.17-1.17,3.07-1.17,4.24,0l25.61,25.61,25.61-25.61c1.17-1.17,3.07-1.17,4.24,0,1.17,1.17,1.17,3.07,0,4.24l-29.85,29.85Z"/>
  <path class="cls-1" d="m149.73,78.02l-28.79-28.79c-.59-.59-.59-1.54,0-2.12.59-.59,1.54-.59,2.12,0l26.67,26.67,26.67-26.67c.59-.59,1.54-.59,2.12,0,.59.59.59,1.54,0,2.12l-28.79,28.79Z"/>
</svg>