<?xml version="1.0" encoding="UTF-8"?>
<svg id="Layer_1" data-name="Layer 1" xmlns="http://www.w3.org/2000/svg" viewBox="0 0 393.73 200">
  <defs>
    <style>
      .cls-1 {
        fill: #fff;
      }
    </style>
  </defs>
  <path class="cls-1" d="m157.46,102.25c-1.44-.12-2.45-.38-3-.76-.5-.35-.73-.76-.73-1.3,0-.58.21-1,.66-1.32.5-.34,1.26-.52,2.26-.52s1.81.18,2.42.54c.6.35,1.05.89,1.38,1.65l.21.49,2.86-1.41-.2-.44c-1.15-2.53-3.34-3.81-6.5-3.81-1.85,0-3.35.42-4.43,1.25-1.13.86-1.7,2.08-1.7,3.63,0,1.39.51,2.52,1.51,3.36.97.82,2.51,1.31,4.68,1.49,1.37.12,2.33.37,2.84.74.45.33.67.84.67,1.55,0,.67-.26,1.13-.83,1.45-.65.36-1.49.54-2.51.54-2.11,0-3.48-.73-4.19-2.24l-.22-.46-2.86,1.41.23.45c.62,1.21,1.53,2.17,2.71,2.83h0c1.17.66,2.54.99,4.07.99,1.16,0,2.27-.19,3.28-.58,1.04-.39,1.89-.99,2.52-1.77.65-.8.97-1.78.97-2.89,0-1.39-.53-2.53-1.58-3.38-1-.82-2.52-1.32-4.51-1.5Z"/>
  <path class="cls-1" d="m180.11,96.47c-1.21-.73-2.58-1.09-4.1-1.09s-2.89.37-4.08,1.1c-1.19.73-2.14,1.75-2.81,3.03-.66,1.27-1,2.73-1,4.34s.34,3.08,1.02,4.38c.68,1.3,1.64,2.33,2.84,3.06h0c1.21.73,2.58,1.1,4.1,1.1s2.89-.37,4.08-1.1c1.19-.73,2.14-1.75,2.81-3.05.66-1.28,1-2.75,1-4.36s-.34-3.08-1.02-4.36c-.68-1.29-1.64-2.32-2.84-3.04Zm-4.1,1.89c.92,0,1.75.23,2.47.69.72.46,1.29,1.11,1.69,1.94.41.84.62,1.81.62,2.88s-.21,2.04-.62,2.88c-.4.83-.97,1.48-1.69,1.94-1.41.9-3.46.92-4.88,0-.71-.46-1.27-1.11-1.68-1.94-.41-.84-.62-1.82-.62-2.92s.21-2.03.62-2.87c.41-.82.97-1.47,1.68-1.93.7-.46,1.52-.69,2.42-.69Z"/>
  <path class="cls-1" d="m200.1,107.5c-.49.62-1.04,1.1-1.63,1.42-.59.31-1.36.47-2.29.47s-1.71-.23-2.43-.69c-.72-.46-1.29-1.11-1.69-1.94-.41-.84-.62-1.81-.62-2.88s.21-2.04.62-2.88c.4-.83.97-1.48,1.69-1.94.72-.46,1.52-.69,2.43-.69,1.5,0,2.7.67,3.65,2.06l.3.44,2.41-1.88-.31-.39c-.78-1.01-1.67-1.8-2.62-2.35-.98-.56-2.13-.85-3.43-.85-1.51,0-2.89.37-4.1,1.1-1.21.73-2.16,1.75-2.83,3.05-.66,1.28-1,2.75-1,4.36s.34,3.08,1.02,4.36c.68,1.29,1.64,2.32,2.84,3.04h0c1.21.73,2.59,1.1,4.13,1.1,1.27,0,2.47-.28,3.57-.84,1.09-.55,2.03-1.3,2.77-2.23l.34-.42-2.52-1.76-.29.37Z"/>
  <path class="cls-1" d="m208.89,90.16c-.43.43-.64.95-.64,1.55s.21,1.16.64,1.6c.43.44.96.66,1.59.66s1.13-.22,1.57-.66c.44-.44.66-.96.66-1.57s-.22-1.16-.66-1.59c-.89-.86-2.31-.83-3.15,0Z"/>
  <rect class="cls-1" x="208.89" y="95.88" width="3.18" height="15.98"/>
  <path class="cls-1" d="m231.22,97.28c-.47-.45-.98-.82-1.55-1.13-.98-.52-2.06-.78-3.23-.78-1.51,0-2.89.37-4.08,1.1-1.19.73-2.14,1.75-2.81,3.03-.66,1.27-1,2.73-1,4.34s.34,3.11,1.02,4.39c.68,1.29,1.64,2.32,2.84,3.04s2.58,1.1,4.1,1.1c1.14,0,2.21-.26,3.18-.78.56-.3,1.07-.67,1.54-1.11v1.38h3.18v-15.98h-3.18v1.39Zm-4.78,1.08c.92,0,1.75.23,2.47.69.72.46,1.29,1.11,1.69,1.94.41.84.62,1.81.62,2.88s-.21,2.04-.62,2.88c-.4.83-.97,1.48-1.69,1.94-1.41.9-3.46.92-4.88,0-.71-.46-1.27-1.11-1.68-1.94-.41-.84-.62-1.82-.62-2.92s.21-2.03.62-2.87c.41-.82.97-1.47,1.68-1.93.7-.46,1.52-.69,2.42-.69Z"/>
  <rect class="cls-1" x="240.79" y="87.63" width="3.18" height="24.23"/>
</svg>