<svg xmlns="http://www.w3.org/2000/svg" width="1000" height="623"><g transform="translate(-.606 .252)"><svg xmlns="http://www.w3.org/2000/svg" xmlns:xlink="http://www.w3.org/1999/xlink" width="1000" height="623" data-background-color="#030303" viewBox="0 0 396 247"><g transform="translate(.24 -.1)"><svg width="395.52" height="247.2" viewBox="0 0 395.52 247.2"><g><svg/></g><g><svg width="395.52" height="247.2" viewBox="0 0 395.52 247.2"><g transform="translate(75.544 102.962)"><svg width="244.431" height="41.277" viewBox="0 0 244.431 41.277"><g><svg width="244.431" height="41.277" viewBox="0 0 244.431 41.277"><g><svg width="244.431" height="41.277" viewBox="0 0 244.431 41.277"><g><svg width="244.431" height="41.277" viewBox="0 0 244.431 41.277"><g><svg width="244.431" height="41.277" viewBox="0 0 244.431 41.277"><g><svg width="244.431" height="41.277" viewBox="0 0 244.431 41.277"><g><svg width="244.431" height="41.277" data-palette-color="#f9f9f9" viewBox="2.8 -37.2 223.231 37.7"><path fill="#f9f9f9" d="M12.25.35q-2.5 0-5.2-.93Q4.35-1.5 2.8-2.9L4-4.35Q5.65-3.1 7.68-2.38q2.02.73 4.12.73 4.2 0 6.75-2.58 2.55-2.57 2.55-6.82 0-4.1-2.67-6.1-2.68-2-8.13-2-3.6 0-6.25.95v-13.85h16.1v2h-14v9.45l1.15-.15q2.65-.35 3.75-.35 5.65 0 8.98 2.82 3.32 2.83 3.32 7.63 0 3.1-1.45 5.62-1.45 2.53-3.97 3.96Q15.4.35 12.25.35Zm20.5-.4 12.25-30-17.5-.05v-1.95h20.3v.75L35-.05h-2.25Zm31.35-36.6q1.1.45 1.9 1.25L64.35-34q-.55-.6-1.48-.95-.92-.35-1.97-.35-3.35 0-4.45 2.72-1.1 2.73-1.1 7.13v.45h7.55v1.9h-7.55V-.05h-2.1V-23.1h-2.6V-25h2.6v-.3q0-5.55 1.6-8.72 1.6-3.18 6-3.18 1.9 0 3.25.55Zm14.49 11.4q.7 0 2.6.35v1.9q-1.45-.25-2.5-.25-2.85 0-4.6 1.4-.75.65-1.6 1.67-.85 1.03-1.45 2.18V-.05h-2.1V-18.1q0-2.2-.45-3.48-.45-1.27-1.4-2.47l1.4-1.35q1.1 1.05 1.78 2.37.67 1.33.77 2.78.65-1.3 1.55-2.35t1.8-1.6q1.7-1.05 4.2-1.05Zm7.05 13.5q0 3.7 1.83 7.02 1.82 3.33 7.32 3.33 2.05 0 3.85-.58 1.8-.57 4.05-1.82l.95 1.55q-1.95 1.3-4.3 2.02-2.35.73-4.85.73-5.2 0-8.07-3.3-2.88-3.3-2.88-8.85 0-3.95 1.35-7.05 1.35-3.1 3.83-4.83 2.47-1.72 5.82-1.72 2.9 0 5.18 1.32 2.27 1.33 3.55 3.65 1.27 2.33 1.27 5.33 0 .9-.2 3.2h-18.7Zm.1-1.9h16.6q.1-.55.1-1.4 0-2.4-1.07-4.33-1.08-1.92-2.88-3-1.8-1.07-3.95-1.07-3.5 0-5.92 2.7-2.43 2.7-2.88 7.1Zm26.1 1.9q0 3.7 1.82 7.02 1.83 3.33 7.33 3.33 2.05 0 3.85-.58 1.8-.57 4.05-1.82l.95 1.55q-1.95 1.3-4.3 2.02-2.35.73-4.85.73-5.2 0-8.08-3.3-2.87-3.3-2.87-8.85 0-3.95 1.35-7.05 1.35-3.1 3.82-4.83 2.48-1.72 5.83-1.72 2.9 0 5.17 1.32 2.28 1.33 3.55 3.65 1.28 2.33 1.28 5.33 0 .9-.2 3.2h-18.7Zm.1-1.9h16.6q.1-.55.1-1.4 0-2.4-1.08-4.33-1.07-1.92-2.87-3-1.8-1.07-3.95-1.07-3.5 0-5.93 2.7-2.42 2.7-2.87 7.1ZM146.39.45q-3.3 0-5.68-1.7-2.37-1.7-3.6-4.6-1.22-2.9-1.22-6.4 0-3.8 1.4-6.75t4.12-4.6q2.73-1.65 6.53-1.65 1.2 0 3.15.15t3.35.35V-36.4h2.1v29.35q0 3.8 1.85 6.05L157.14.25q-1.95-1.55-2.55-4.95-1.05 2.65-3.25 3.9T146.39.45Zm.15-1.95q2.4 0 4.3-1.2t2.85-3.15q.75-1.45.75-3.45v-13.45q-3-.35-4.3-.45-1.3-.1-2.65-.1-2.85 0-5 1.45t-3.28 3.92q-1.12 2.48-1.12 5.53 0 2.95.97 5.42.98 2.48 2.9 3.98 1.93 1.5 4.58 1.5ZM174.88.45q-3.55 0-6.27-1.6-2.73-1.6-4.25-4.5-1.53-2.9-1.53-6.65 0-3.8 1.53-6.73 1.52-2.92 4.27-4.57 2.75-1.65 6.3-1.65t6.3 1.62q2.75 1.63 4.28 4.56 1.52 2.92 1.52 6.72 0 3.75-1.52 6.67-1.53 2.93-4.28 4.53t-6.35 1.6Zm.05-1.9q2.95 0 5.23-1.4 2.27-1.4 3.52-3.93 1.25-2.52 1.25-5.77 0-3.2-1.25-5.65t-3.52-3.8q-2.28-1.35-5.23-1.35-2.95 0-5.22 1.37-2.28 1.38-3.53 3.88t-1.25 5.75q0 3.2 1.25 5.67 1.25 2.48 3.53 3.85 2.27 1.38 5.22 1.38Zm18.35-16.25q0-3.8-1.9-6.05l1.25-1.25q1.15.95 1.73 2.15.57 1.2.82 2.95 2.65-5.35 8.15-5.35 2.7 0 4.5 1.32 1.8 1.33 2.55 3.93 1.35-2.6 3.5-3.93 2.15-1.32 4.75-1.32 3.35 0 5.4 2.07 2.05 2.08 2 5.78l-.2 17.35h-2l.1-16.8q0-3.1-1.35-4.8-1.35-1.7-4.2-1.7-4.95 0-7.7 5.35V-.05h-2.1v-16.8q0-3-1.37-4.75-1.38-1.75-4.03-1.75-2.55 0-4.72 1.55-2.18 1.55-3.08 3.75v18h-2.1V-17.7Z" class="wordmark-text-0" data-fill-palette-color="primary"/></svg></g></svg></g></svg></g></svg></g></svg></g></svg></g></svg></g><path fill="#f9f9f9" stroke="transparent" d="M184.55 96.962v-62.1H7.074v177.476H184.55v-62.1h-3.722v58.378H10.797V38.584h170.031v58.378Z" data-fill-palette-color="primary"/></svg></g></svg></g></svg></g></svg>
