<?xml version="1.0" encoding="UTF-8"?>
<svg id="Layer_1" data-name="Layer 1" xmlns="http://www.w3.org/2000/svg" viewBox="0 0 300 200">
  <defs>
    <style>
      .cls-1 {
        fill: #fff;
      }
    </style>
  </defs>
  <path class="cls-1" d="m76.66,105.32c-.49.62-1.04,1.1-1.63,1.42-.58.31-1.36.47-2.29.47s-1.71-.23-2.43-.69c-.72-.46-1.29-1.11-1.69-1.94-.41-.84-.62-1.81-.62-2.88s.21-2.04.62-2.89c.4-.83.97-1.48,1.69-1.94.72-.46,1.52-.69,2.43-.69,1.5,0,2.7.67,3.65,2.06l.3.44,2.41-1.88-.31-.39c-.78-1.01-1.67-1.8-2.62-2.35-.98-.56-2.13-.85-3.43-.85-1.52,0-2.89.37-4.1,1.1-1.21.73-2.16,1.75-2.83,3.05-.66,1.28-1,2.75-1,4.36s.34,3.08,1.02,4.36c.68,1.29,1.64,2.32,2.84,3.04,1.21.73,2.59,1.1,4.13,1.1,1.27,0,2.47-.28,3.57-.84,1.09-.55,2.03-1.3,2.77-2.23l.34-.42-2.52-1.76-.29.37Z"/>
  <path class="cls-1" d="m95.33,94.29c-1.2-.73-2.58-1.1-4.1-1.1s-2.89.37-4.08,1.1c-1.19.73-2.14,1.75-2.81,3.03-.66,1.27-1,2.73-1,4.34s.34,3.08,1.02,4.38c.68,1.3,1.64,2.33,2.84,3.06,1.2.73,2.58,1.1,4.1,1.1s2.89-.37,4.08-1.1c1.19-.73,2.14-1.75,2.81-3.04.66-1.28,1-2.75,1-4.36s-.34-3.08-1.02-4.36c-.68-1.29-1.63-2.31-2.84-3.04Zm-4.1,1.89c.92,0,1.75.23,2.47.69.72.46,1.29,1.11,1.69,1.94.41.84.62,1.81.62,2.89s-.21,2.04-.62,2.88c-.4.83-.97,1.48-1.69,1.94-.71.46-1.54.69-2.47.69s-1.7-.22-2.42-.69c-.72-.47-1.27-1.1-1.68-1.95-.41-.84-.62-1.82-.62-2.92s.21-2.03.62-2.87c.41-.82.97-1.47,1.68-1.93.71-.46,1.5-.69,2.42-.69Z"/>
  <path class="cls-1" d="m115.21,93.89h0c-.95-.46-2-.69-3.11-.69-1.2,0-2.27.29-3.19.86-.47.29-.89.65-1.27,1.06v-1.41h-3.18v15.98h3.18v-7.99c0-1.72.36-3.1,1.06-4.1.67-.96,1.67-1.42,3.05-1.42,2.37,0,3.47,1.25,3.47,3.95v9.56h3.18v-10.52c0-1.22-.29-2.3-.86-3.21-.57-.91-1.35-1.61-2.32-2.07Z"/>
  <polygon class="cls-1" points="128.82 88.75 125.64 88.75 125.64 93.71 123.08 93.71 123.08 96.69 125.64 96.69 125.64 109.68 128.82 109.68 128.82 96.69 132.28 96.69 132.28 93.71 128.82 93.71 128.82 88.75"/>
  <path class="cls-1" d="m148.59,95.1c-.47-.45-.98-.82-1.55-1.13-.98-.52-2.06-.78-3.23-.78-1.52,0-2.89.37-4.08,1.1s-2.14,1.75-2.81,3.03c-.66,1.27-1,2.73-1,4.34s.34,3.11,1.02,4.39c.68,1.29,1.64,2.32,2.84,3.04,1.21.73,2.58,1.1,4.1,1.1,1.14,0,2.21-.26,3.18-.78.56-.3,1.07-.67,1.54-1.11v1.38h3.18v-15.98h-3.18v1.39Zm-4.78,1.08c.92,0,1.75.23,2.47.69.72.46,1.29,1.11,1.69,1.94.41.84.62,1.81.62,2.89s-.21,2.04-.62,2.88c-.4.83-.97,1.48-1.69,1.94-1.41.9-3.46.92-4.88,0-.71-.46-1.27-1.12-1.68-1.95-.41-.84-.62-1.82-.62-2.92s.21-2.03.62-2.87c.4-.82.97-1.47,1.68-1.93.7-.46,1.52-.69,2.42-.69Z"/>
  <path class="cls-1" d="m168.85,105.32c-.49.62-1.04,1.1-1.63,1.42-.58.31-1.36.47-2.29.47s-1.71-.23-2.43-.69c-.72-.46-1.29-1.11-1.69-1.94-.41-.84-.62-1.81-.62-2.88s.21-2.04.62-2.89c.4-.83.97-1.48,1.69-1.94.72-.46,1.52-.69,2.43-.69,1.5,0,2.7.67,3.65,2.06l.3.44,2.41-1.88-.31-.39c-.78-1.01-1.66-1.8-2.62-2.35-.98-.56-2.14-.85-3.43-.85-1.52,0-2.89.37-4.1,1.1-1.21.73-2.16,1.75-2.83,3.05-.66,1.28-1,2.75-1,4.36s.34,3.08,1.02,4.36c.68,1.29,1.64,2.32,2.84,3.04,1.21.73,2.6,1.1,4.13,1.1,1.27,0,2.47-.28,3.57-.84,1.09-.55,2.03-1.3,2.77-2.23l.33-.42-2.52-1.76-.29.37Z"/>
  <polygon class="cls-1" points="180.44 88.75 177.26 88.75 177.26 93.71 174.7 93.71 174.7 96.69 177.26 96.69 177.26 109.68 180.44 109.68 180.44 96.69 183.89 96.69 183.89 93.71 180.44 93.71 180.44 88.75"/>
  <path class="cls-1" d="m209.77,101.7c0,1.72-.36,3.1-1.06,4.1-.67.96-1.67,1.42-3.05,1.42-2.37,0-3.47-1.25-3.47-3.95v-9.56h-3.18v10.52c0,1.22.29,2.3.86,3.21.57.91,1.35,1.61,2.32,2.07.95.46,2,.69,3.11.69,1.2,0,2.27-.29,3.19-.86.47-.29.89-.65,1.27-1.06v1.41h3.18v-15.98h-3.18v7.99Z"/>
  <path class="cls-1" d="m230.16,101.58c-1-.82-2.52-1.32-4.52-1.5-1.44-.12-2.45-.38-3-.76-.5-.35-.73-.76-.73-1.3,0-.59.21-1,.66-1.32.5-.34,1.26-.52,2.26-.52s1.81.18,2.42.54c.6.35,1.05.89,1.38,1.65l.21.49,2.86-1.41-.2-.44c-1.15-2.53-3.34-3.81-6.5-3.81-1.85,0-3.35.42-4.43,1.25-1.13.86-1.7,2.08-1.7,3.63,0,1.39.51,2.52,1.51,3.36.98.82,2.51,1.31,4.68,1.49,1.71.15,2.49.48,2.84.74.45.33.67.84.67,1.55,0,.67-.26,1.13-.83,1.45-.65.36-1.49.54-2.51.54-2.11,0-3.48-.73-4.19-2.24l-.22-.46-2.86,1.41.23.45c.62,1.21,1.53,2.17,2.71,2.83,1.17.66,2.54.99,4.07.99,1.16,0,2.27-.19,3.28-.58,1.04-.39,1.89-.99,2.52-1.77.65-.8.97-1.78.97-2.89,0-1.39-.53-2.53-1.58-3.38Z"/>
</svg>