<?xml version="1.0" encoding="UTF-8"?>
<svg id="Layer_1" data-name="Layer 1" xmlns="http://www.w3.org/2000/svg" viewBox="0 0 393.73 200">
  <defs>
    <style>
      .cls-1 {
        fill: #fff;
      }
    </style>
  </defs>
  <path class="cls-1" d="m182.91,76.31v40.96h40v-40.96h-40Zm25.45,12.29c.41-.35.98-.52,1.71-.52s1.33.17,1.75.52c.42.35.63.84.63,1.46s-.21,1.12-.63,1.46c-.42.35-1,.52-1.75.52s-1.32-.17-1.73-.51c-.4-.34-.61-.83-.61-1.48s.21-1.12.62-1.46Zm-4.91,17.22l-10.35.25c-.68.02-1.2-.16-1.58-.52-.37-.36-.56-.88-.56-1.56v-15.66h3.97v14.27l8.51-.25v3.47Zm12.41,0h-10.92v-3.47h3.55v-5.73l-3.05.15v-3.47l4.72-.25c.69-.03,1.23.13,1.6.5.37.36.56.89.56,1.59v7.22h3.55v3.47Z"/>
</svg>