<svg xmlns="http://www.w3.org/2000/svg" version="1.1" xmlns:xlink="http://www.w3.org/1999/xlink" xmlns:svgjs="http://svgjs.dev/svgjs" width="1000" height="1000" viewBox="0 0 1000 1000"><rect width="1000" height="1000" fill="#000000"></rect><g transform="matrix(0.7,0,0,0.7,149.57575757575756,282.1265587044535)"><svg viewBox="0 0 396 247" data-background-color="#030303" preserveAspectRatio="xMidYMid meet" height="623" width="1000" xmlns="http://www.w3.org/2000/svg" xmlns:xlink="http://www.w3.org/1999/xlink"><g id="tight-bounds" transform="matrix(1,0,0,1,0.2400000000000091,-0.09999999999999432)"><svg viewBox="0 0 395.52 247.2" height="247.2" width="395.52"><g><svg></svg></g><g><svg viewBox="0 0 395.52 247.2" height="247.2" width="395.52"><g transform="matrix(1,0,0,1,75.54432000000001,102.96167268729621)"><svg viewBox="0 0 244.43135999999996 41.276654625407566" height="41.276654625407566" width="244.43135999999996"><g><svg viewBox="0 0 244.43135999999996 41.276654625407566" height="41.276654625407566" width="244.43135999999996"><g><svg viewBox="0 0 244.43135999999996 41.276654625407566" height="41.276654625407566" width="244.43135999999996"><g><svg viewBox="0 0 244.43135999999996 41.276654625407566" height="41.276654625407566" width="244.43135999999996"><g id="textblocktransform"><svg viewBox="0 0 244.43135999999996 41.276654625407566" height="41.276654625407566" width="244.43135999999996" id="textblock"><g><svg viewBox="0 0 244.43135999999996 41.276654625407566" height="41.276654625407566" width="244.43135999999996"><g transform="matrix(1,0,0,1,0,0)"><svg width="244.43135999999996" viewBox="2.8 -37.2 223.23118995019001 37.7" height="41.276654625407566" data-palette-color="#f9f9f9"><path d="M12.25 0.35Q9.75 0.35 7.05-0.58 4.35-1.5 2.8-2.9L2.8-2.9 4-4.35Q5.65-3.1 7.68-2.38 9.7-1.65 11.8-1.65L11.8-1.65Q16-1.65 18.55-4.23 21.1-6.8 21.1-11.05L21.1-11.05Q21.1-15.15 18.43-17.15 15.75-19.15 10.3-19.15L10.3-19.15Q6.7-19.15 4.05-18.2L4.05-18.2 4.05-32.05 20.15-32.05 20.15-30.05 6.15-30.05 6.15-20.6 7.3-20.75Q9.95-21.1 11.05-21.1L11.05-21.1Q16.7-21.1 20.03-18.28 23.35-15.45 23.35-10.65L23.35-10.65Q23.35-7.55 21.9-5.03 20.45-2.5 17.93-1.07 15.4 0.35 12.25 0.35L12.25 0.35ZM32.75-0.05L45-30.05 27.5-30.1 27.5-32.05 47.8-32.05 47.8-31.3 35-0.05 32.75-0.05ZM64.1-36.65Q65.2-36.2 66-35.4L66-35.4 64.35-34Q63.8-34.6 62.87-34.95 61.95-35.3 60.9-35.3L60.9-35.3Q57.55-35.3 56.45-32.58 55.35-29.85 55.35-25.45L55.35-25.45 55.35-25 62.9-25 62.9-23.1 55.35-23.1 55.35-0.05 53.25-0.05 53.25-23.1 50.65-23.1 50.65-25 53.25-25 53.25-25.3Q53.25-30.85 54.85-34.02 56.45-37.2 60.85-37.2L60.85-37.2Q62.75-37.2 64.1-36.65L64.1-36.65ZM78.59-25.25Q79.29-25.25 81.19-24.9L81.19-24.9 81.19-23Q79.74-23.25 78.69-23.25L78.69-23.25Q75.84-23.25 74.09-21.85L74.09-21.85Q73.34-21.2 72.49-20.18 71.64-19.15 71.04-18L71.04-18 71.04-0.05 68.94-0.05 68.94-18.1Q68.94-20.3 68.49-21.58 68.04-22.85 67.09-24.05L67.09-24.05 68.49-25.4Q69.59-24.35 70.27-23.03 70.94-21.7 71.04-20.25L71.04-20.25Q71.69-21.55 72.59-22.6 73.49-23.65 74.39-24.2L74.39-24.2Q76.09-25.25 78.59-25.25L78.59-25.25ZM85.64-11.75Q85.64-8.05 87.47-4.73 89.29-1.4 94.79-1.4L94.79-1.4Q96.84-1.4 98.64-1.98 100.44-2.55 102.69-3.8L102.69-3.8 103.64-2.25Q101.69-0.95 99.34-0.23 96.99 0.5 94.49 0.5L94.49 0.5Q89.29 0.5 86.42-2.8 83.54-6.1 83.54-11.65L83.54-11.65Q83.54-15.6 84.89-18.7 86.24-21.8 88.72-23.53 91.19-25.25 94.54-25.25L94.54-25.25Q97.44-25.25 99.72-23.93 101.99-22.6 103.27-20.28 104.54-17.95 104.54-14.95L104.54-14.95Q104.54-14.05 104.34-11.75L104.34-11.75 85.64-11.75ZM85.74-13.65L102.34-13.65Q102.44-14.2 102.44-15.05L102.44-15.05Q102.44-17.45 101.37-19.38 100.29-21.3 98.49-22.38 96.69-23.45 94.54-23.45L94.54-23.45Q91.04-23.45 88.62-20.75 86.19-18.05 85.74-13.65L85.74-13.65ZM111.84-11.75Q111.84-8.05 113.66-4.73 115.49-1.4 120.99-1.4L120.99-1.4Q123.04-1.4 124.84-1.98 126.64-2.55 128.89-3.8L128.89-3.8 129.84-2.25Q127.89-0.95 125.54-0.23 123.19 0.5 120.69 0.5L120.69 0.5Q115.49 0.5 112.61-2.8 109.74-6.1 109.74-11.65L109.74-11.65Q109.74-15.6 111.09-18.7 112.44-21.8 114.91-23.53 117.39-25.25 120.74-25.25L120.74-25.25Q123.64-25.25 125.91-23.93 128.19-22.6 129.46-20.28 130.74-17.95 130.74-14.95L130.74-14.95Q130.74-14.05 130.54-11.75L130.54-11.75 111.84-11.75ZM111.94-13.65L128.54-13.65Q128.64-14.2 128.64-15.05L128.64-15.05Q128.64-17.45 127.56-19.38 126.49-21.3 124.69-22.38 122.89-23.45 120.74-23.45L120.74-23.45Q117.24-23.45 114.81-20.75 112.39-18.05 111.94-13.65L111.94-13.65ZM146.39 0.45Q143.09 0.45 140.71-1.25 138.34-2.95 137.11-5.85 135.89-8.75 135.89-12.25L135.89-12.25Q135.89-16.05 137.29-19 138.69-21.95 141.41-23.6 144.14-25.25 147.94-25.25L147.94-25.25Q149.14-25.25 151.09-25.1 153.04-24.95 154.44-24.75L154.44-24.75 154.44-36.4 156.54-36.4 156.54-7.05Q156.54-3.25 158.39-1L158.39-1 157.14 0.25Q155.19-1.3 154.59-4.7L154.59-4.7Q153.54-2.05 151.34-0.8 149.14 0.45 146.39 0.45L146.39 0.45ZM146.54-1.5Q148.94-1.5 150.84-2.7 152.74-3.9 153.69-5.85L153.69-5.85Q154.44-7.3 154.44-9.3L154.44-9.3 154.44-22.75Q151.44-23.1 150.14-23.2 148.84-23.3 147.49-23.3L147.49-23.3Q144.64-23.3 142.49-21.85 140.34-20.4 139.21-17.93 138.09-15.45 138.09-12.4L138.09-12.4Q138.09-9.45 139.06-6.98 140.04-4.5 141.96-3 143.89-1.5 146.54-1.5L146.54-1.5ZM174.88 0.45Q171.33 0.45 168.61-1.15 165.88-2.75 164.36-5.65 162.83-8.55 162.83-12.3L162.83-12.3Q162.83-16.1 164.36-19.03 165.88-21.95 168.63-23.6 171.38-25.25 174.93-25.25L174.93-25.25Q178.48-25.25 181.23-23.63 183.98-22 185.51-19.07 187.03-16.15 187.03-12.35L187.03-12.35Q187.03-8.6 185.51-5.68 183.98-2.75 181.23-1.15 178.48 0.45 174.88 0.45L174.88 0.45ZM174.93-1.45Q177.88-1.45 180.16-2.85 182.43-4.25 183.68-6.78 184.93-9.3 184.93-12.55L184.93-12.55Q184.93-15.75 183.68-18.2 182.43-20.65 180.16-22 177.88-23.35 174.93-23.35L174.93-23.35Q171.98-23.35 169.71-21.98 167.43-20.6 166.18-18.1 164.93-15.6 164.93-12.35L164.93-12.35Q164.93-9.15 166.18-6.68 167.43-4.2 169.71-2.83 171.98-1.45 174.93-1.45L174.93-1.45ZM193.28-17.7Q193.28-21.5 191.38-23.75L191.38-23.75 192.63-25Q193.78-24.05 194.36-22.85 194.93-21.65 195.18-19.9L195.18-19.9Q197.83-25.25 203.33-25.25L203.33-25.25Q206.03-25.25 207.83-23.93 209.63-22.6 210.38-20L210.38-20Q211.73-22.6 213.88-23.93 216.03-25.25 218.63-25.25L218.63-25.25Q221.98-25.25 224.03-23.18 226.08-21.1 226.03-17.4L226.03-17.4 225.83-0.05 223.83-0.05 223.93-16.85Q223.93-19.95 222.58-21.65 221.23-23.35 218.38-23.35L218.38-23.35Q213.43-23.35 210.68-18L210.68-18 210.68-0.05 208.58-0.05 208.58-16.85Q208.58-19.85 207.21-21.6 205.83-23.35 203.18-23.35L203.18-23.35Q200.63-23.35 198.46-21.8 196.28-20.25 195.38-18.05L195.38-18.05 195.38-0.05 193.28-0.05 193.28-17.7Z" opacity="1" transform="matrix(1,0,0,1,0,0)" fill="#ffffff" class="wordmark-text-0" data-fill-palette-color="primary" id="text-0"></path></svg></g></svg></g></svg></g></svg></g></svg></g></svg></g></svg></g><path d="M184.55 96.962L184.55 34.862 7.074 34.862 7.074 212.338 184.55 212.338 184.55 150.238 180.828 150.238 180.828 208.616 10.797 208.616 10.797 38.584 180.828 38.584 180.828 96.962Z" fill="#ffffff" stroke="transparent" data-fill-palette-color="primary"></path></svg></g><defs></defs></svg><rect width="395.52" height="247.2" fill="none" stroke="none" visibility="hidden"></rect></g></svg></g></svg>
